<svg width="296" height="117" viewBox="0 0 296 117" fill="none" xmlns="http://www.w3.org/2000/svg">
<path d="M16.8323 81.8042C16.4029 82.1953 15.9496 82.5591 15.4749 82.8933C15.9741 82.5931 16.4307 82.2268 16.8323 81.8042V81.8042Z" fill="#6D6E71"/>
<path d="M195.755 52.6262L195.909 53.9466L196.663 52.8518C200.173 47.7556 206.29 45.511 211.509 45.511C225.69 45.511 235.14 56.047 235.14 69.6308H235.64H236.14V46.3702H246.76V92.9156H236.128V69.9216V69.9212H235.628L235.128 69.9208C235.122 76.6944 232.99 82.7286 229.037 87.0637C225.091 91.3927 219.296 94.0652 211.883 94.0652C209.451 94.0652 206.436 93.6887 203.628 92.6832C200.819 91.677 198.257 90.0564 196.665 87.5957L195.745 86.1736V87.8672V104.54L185.114 112.172V75.403L184.124 75.3029C181.956 85.9119 173.494 93.7929 160.681 93.7929C149.095 93.7929 141.136 87.3468 138.122 78.2886L137.65 76.87L137.173 78.2872C134.129 87.3456 126.116 93.7929 114.529 93.7929C101.831 93.7929 93.451 86.0199 91.2183 75.5169L90.2292 75.6209V81.2237V81.2461C90.1566 83.53 89.4275 88.9914 84.3808 91.7988L84.3577 91.8117L84.3364 91.8266L84.3363 91.8267L84.3361 91.8269L84.3333 91.8288L84.3193 91.8384C84.3111 91.844 84.3001 91.8515 84.2863 91.8607C84.278 91.8662 84.2688 91.8724 84.2587 91.8791C84.204 91.9152 84.1213 91.9685 84.013 92.0349C83.7961 92.1678 83.4771 92.3527 83.0742 92.5564C82.2668 92.9647 81.1314 93.444 79.8141 93.7351C77.1903 94.3149 73.8709 94.1481 70.9275 91.1931L70.9224 91.1881L50.4586 71.2212L50.1097 70.8807L49.7605 71.2209L29.2968 91.1575L29.292 91.1623C26.3392 94.118 23.0179 94.2846 20.3951 93.7049C19.0782 93.4138 17.9438 92.9345 17.1373 92.5263C16.7349 92.3226 16.4162 92.1377 16.1997 92.0048C16.0915 91.9384 16.0089 91.8851 15.9544 91.849C15.9417 91.8407 15.9306 91.8332 15.921 91.8268C15.9099 91.8193 15.9008 91.8131 15.8939 91.8084L15.8799 91.7988L15.8771 91.7969L15.8769 91.7967L15.8768 91.7966L15.8555 91.7816L15.8324 91.7687C12.7291 90.039 11.1826 86.4622 10.4573 82.8519C9.73594 79.2615 9.85453 75.7712 9.96983 74.4044L9.97112 74.389L9.97147 74.3737L9.4716 74.3623C9.97147 74.3737 9.97148 74.3735 9.97148 74.3732L9.97151 74.3721L9.97159 74.3682L9.97191 74.3529L9.97305 74.2934C9.974 74.2409 9.97529 74.1629 9.97667 74.0602C9.97943 73.8549 9.98254 73.5509 9.98398 73.1546C9.98686 72.3619 9.98304 71.2001 9.95634 69.7205C9.90295 66.7613 9.75801 62.5305 9.3919 57.4393C8.66828 47.3763 7.0799 33.9418 3.6221 20.3188L12.602 17.8346L13.4072 28.5787L13.454 29.2032L14.0526 29.0193L19.6213 27.3087L19.2099 37.3123L19.1779 38.09L19.8985 37.7957L22.8836 36.5766V36.5914V36.6067V36.6222V36.6378V36.6535V36.6693V36.6853V36.7014V36.7176V36.7339V36.7504V36.767V36.7837V36.8005V36.8174V36.8344V36.8516V36.8689V36.8863V36.9038V36.9214V36.9392V36.957V36.975V36.993V37.0112V37.0295V37.0479V37.0664V37.085V37.1037V37.1225V37.1415V37.1605V37.1796V37.1989V37.2182V37.2376V37.2572V37.2768V37.2965V37.3164V37.3363V37.3563V37.3764V37.3966V37.4169V37.4373V37.4578V37.4784V37.499V37.5198V37.5406V37.5616V37.5826V37.6037V37.6249V37.6462V37.6675V37.689V37.7105V37.7321V37.7538V37.7756V37.7974V37.8194V37.8414V37.8635V37.8856V37.9079V37.9302V37.9526V37.975V37.9975V38.0201V38.0428V38.0656V38.0884V38.1113V38.1342V38.1572V38.1803V38.2035V38.2267V38.2499V38.2733V38.2967V38.3202V38.3437V38.3673V38.3909V38.4146V38.4384V38.4622V38.4861V38.51V38.534V38.558V38.5821V38.6063V38.6305V38.6547V38.679V38.7034V38.7278V38.7522V38.7767V38.8012V38.8258V38.8504V38.8751V38.8998V38.9246V38.9494V38.9742V38.9991V39.024V39.049V39.074V39.099V39.1241V39.1492V39.1743V39.1995V39.2247V39.2499V39.2752V39.3005V39.3258V39.3512V39.3766V39.402V39.4275V39.4529V39.4784V39.5039V39.5295V39.555V39.5806V39.6063V39.6319V39.6575V39.6832V39.7089V39.7346V39.7603V39.7861V39.8118V39.8376V39.8634V39.8892V39.915V39.9408V39.9666V39.9925V40.0183V40.0442V40.0701V40.0959V40.1218V40.1477V40.1736V40.1995V40.2254V40.2513V40.2772V40.3031V40.329V40.3549V40.3808V40.4067V40.4326V40.4585V40.4843V40.5102V40.5361V40.562V40.5878V40.6137V40.6395V40.6653V40.6912V40.717V40.7428V40.7686V40.7943V40.8201V40.8458V40.8715V40.8972V40.9229V40.9486V40.9742V40.9999V41.0255V41.0511V41.0766V41.1022V41.1277V41.1532V41.1787V41.2041V41.2295V41.2549V41.2803V41.3056V41.3309V41.3561V41.3814V41.4066V41.4318V41.4569V41.482V41.5071V41.5321V41.5571V41.582V41.6069V41.6318V41.6567V41.6815V41.7062V41.7309V41.7556V41.7802V41.8048V41.8293V41.8538V41.8782V41.9026V41.927V41.9513V41.9755V41.9997V42.0239V42.0479V42.072V42.096V42.1199V42.1437V42.1676V42.1913V42.215V42.2387V42.2622V42.2858V42.3092V42.3326V42.356V42.3792V42.4024V42.4256V42.4486V42.4717V42.4946V42.5175V42.5403V42.563V42.5857V42.6083V42.6308V42.6533V42.6756V42.6979V42.7202V42.7423V42.7644V42.7864V42.8083V42.8302V42.8519V42.8736V42.8952V42.9167V42.9382V42.9595V42.9808V43.002V43.0231V43.0441V43.065V43.0858V43.1066V43.1273V43.1478V43.1683V43.1887V43.209V43.2292V43.2493V43.2693V43.2892V43.309V43.3287V43.3484V43.3679V43.3873V43.4066V43.4259V43.445V43.464V43.4829V43.5017V43.5204V43.539V43.5575V43.5759V43.5942V43.6123V43.6304V43.6484V43.6662V43.6839V43.7015V43.719V43.7364V43.7537V43.7708V43.7879V43.8048V43.8216V43.8383V43.8548V43.8713V43.8876V43.9038V43.9199V43.9358V43.9517V43.9674V43.9829V43.9984V44.0137V44.0289V44.044V44.0589V44.0737V44.0884V44.1029V44.1173V44.1316V44.1458V44.1598V44.1736V44.1874V44.201V44.2144V44.2277V44.2409V44.254V44.2669V44.2796V44.2922V44.3047V44.317V44.3292V44.3412V44.3531V44.3649V44.3765V44.3879V44.3992V44.4103V44.4213V44.4322V44.4428V44.4534V44.4638V44.474V44.484V44.494V44.5037V44.5133V44.5227V44.532V44.5411V44.5501V44.5589V44.5675V44.576V44.5843V44.5924V44.6004V44.6082V44.6158V44.6233V44.6306V44.6377V44.6446V44.6514V44.658V44.6645V44.6707V44.6768V44.6828V44.6885V44.6941V44.6994V44.7047V44.7097V44.7145V44.7192V44.7237V44.728V44.7321V44.736V44.7398V44.7434V44.7467V44.7499V44.7529V44.7558V44.7584V44.7608V44.7631V44.7651V44.767V44.7687V44.7702V44.7714V44.7725V44.7734V44.7741V44.7746V44.7749L23.3836 44.775H22.8836V45.5151L23.5702 45.2389L26.1557 44.1988C26.1422 44.6747 26.1232 45.3597 26.1004 46.2162C26.054 47.9633 25.9922 50.4239 25.9303 53.2781C25.8066 58.9858 25.6828 66.2703 25.6828 72.5714V73.762L26.5329 72.9283L50.1095 49.8075L73.686 72.9283L74.5333 73.7593L74.5361 72.5725L74.6298 32.1263L90.2413 47.7891V63.8646L91.2302 63.9694C93.4814 53.4744 101.949 45.6078 114.445 45.6078C125.873 45.6078 134.064 52.1562 137.18 61.2614L137.662 62.6692L138.128 61.2561C141.138 52.1292 149.177 45.6138 160.579 45.6138C173.185 45.6138 181.897 53.6156 184.118 64.2392L185.108 64.1369V46.5638H195.046L195.755 52.6262ZM15.1919 82.4811L15.7267 83.3253C16.2626 83.012 16.7543 82.6284 17.189 82.1847L16.5004 81.4604C16.0857 81.8274 15.6487 82.1683 15.1919 82.4811ZM114.541 84.0834H115.041V84.0455C119.185 83.9183 122.347 82.2089 124.489 79.6264C126.707 76.9527 127.807 73.3744 127.819 69.7172V69.7155C127.819 62.4397 122.734 55.2508 114.541 55.2508C110.194 55.2508 106.859 57.0405 104.619 59.7607C102.389 62.4697 101.263 66.0784 101.263 69.7155C101.263 73.3975 102.363 76.9841 104.584 79.6598C106.815 82.3471 110.152 84.0834 114.541 84.0834ZM160.693 84.0834H161.193V84.0455C165.337 83.9183 168.505 82.2091 170.65 79.6266C172.871 76.9528 173.971 73.374 173.971 69.7155C173.971 62.4397 168.885 55.2508 160.693 55.2508C156.346 55.2508 153.011 57.0405 150.771 59.7607C148.541 62.4697 147.415 66.0784 147.415 69.7155C147.415 73.3975 148.515 76.9841 150.736 79.6598C152.967 82.3471 156.304 84.0834 160.693 84.0834ZM210.658 83.6054H211.158V83.5674C219.053 83.3211 224.546 77.2511 224.503 69.7913C224.481 66.0075 223.193 62.5526 220.808 60.0398C218.419 57.5226 214.958 55.9829 210.658 55.9829C206.357 55.9829 202.896 57.5307 200.507 60.0513C198.121 62.5675 196.832 66.022 196.807 69.7908L196.807 69.7974C196.857 77.3959 202.489 83.6054 210.658 83.6054Z" fill="#1B065E" stroke="#8DC63F"/>
<path d="M279.255 69.12L279.063 69.4038L279.258 69.6852L295.385 92.9148H282.348L272.294 77.3634L271.874 76.7139L271.455 77.3634L261.401 92.9148H248.364L264.491 69.6852L264.686 69.4038L264.494 69.12L249.247 46.563H262.338L271.442 62.287L271.874 63.0344L272.307 62.287L281.411 46.563H294.502L279.255 69.12Z" fill="#1B065E" stroke="#8DC63F"/>
<path d="M248.322 32.9699C248.322 32.9397 248.322 32.9034 248.322 32.8731C248.322 32.8429 248.322 32.8066 248.322 32.7703C248.322 23.6944 234.591 23.6944 234.591 32.7703C234.591 32.8066 234.591 32.8368 234.591 32.8731C234.591 32.9094 234.591 32.9397 234.591 32.9699C234.591 42.0579 248.322 42.0579 248.322 32.9699Z" fill="#8DC63F"/>
<path d="M24.0347 4.95542L24.0649 0L19.1782 0.713968L19.4376 5.85696L24.0347 4.95542Z" fill="#D7DF23"/>
<path d="M18.2794 13.3053L18.1165 7.74487L12.3008 8.90053L12.886 14.7272L18.2794 13.3053Z" fill="#8DC63F"/>
<path d="M9.58634 6.5105C6.03294 7.15791 0 8.42248 0 8.42248C1.43584 14.0495 2.31061 17.5468 2.31061 17.5468L10.6481 15.3564L9.58634 6.5105Z" fill="#39B54A"/>
<path d="M32.5418 16.6575L27.1303 18.1641L26.6838 23.7669L31.7213 22.1998L32.5418 16.6575Z" fill="#D7DF23"/>
<path d="M29.139 25.0803L22.5028 27.198L22.0322 34.4103L28.1858 31.9961L29.139 25.0803Z" fill="#8DC63F"/>
<path d="M32.4814 33.9927L25.9055 36.2072V41.9916L31.4679 40.1643L32.4814 33.9927Z" fill="#009444"/>
<path d="M16.2832 24.8382L24.1803 22.4422L24.5905 13.8564L15.9695 16.3493L16.2832 24.8382Z" fill="#39B54A"/>
<path d="M184.625 116.999L196.299 108.607V105.939L184.625 114.319V116.999Z" fill="#8DC63F"/>
</svg>
